# xmcd
# 
# Track frame offsets:
#     150
#     8552
#     29640
#     51795
#     87737
#     105845
#     147220
#     159455
#     172582
#     177720
#     196022
#     208507
#     227065
# 
# Disc length: 3301
# 
# Revision: 7
# Processed by: cddbd v1.5.2PL0 Copyright (c) Steve Scherf et al.
# Submitted via: BonkEnc v1.0.8
# 
DISCID=a00ce30d
DTITLE=Stevie Ray Vaughan And Double Trouble - Couldn't Stand The Weather (Remaster)
DYEAR=1984
DGENRE=Blues Rock
TTITLE0=Scuttle Buttin'
TTITLE1=Couldn't Stand The Weather
TTITLE2=The Things (That) I Used To Do
TTITLE3=Voodoo Chile (Slight Return)
TTITLE4=Cold Shot
TTITLE5=Tin Pan Alley (aka The Roughest Place In Town)
TTITLE6=Honey Bee
TTITLE7=Stang's Swang
TTITLE8=SRV Speaks
TTITLE9=Hide Away
TTITLE10=Look At Little Sister
TTITLE11=Give Me Back My Wig
TTITLE12=Come On (Pt. III)
EXTD=YEAR: 1984
EXTT0=
EXTT1=
EXTT2=
EXTT3=
EXTT4=
EXTT5=
EXTT6=
EXTT7=
EXTT8=
EXTT9=
EXTT10=
EXTT11=
EXTT12=
PLAYORDER=
